<?xml version="1.0" encoding="utf-8"?>
<!-- Generator: Adobe Illustrator 22.1.0, SVG Export Plug-In . SVG Version: 6.00 Build 0)  -->
<svg version="1.1" xmlns="http://www.w3.org/2000/svg" xmlns:xlink="http://www.w3.org/1999/xlink" x="0px" y="0px"
	 viewBox="0 0 1400 1000" style="enable-background:new 0 0 1400 1000;" xml:space="preserve">
<style type="text/css">
	.st0{fill:#FFFFFF;}
	.st1{fill:#A9F7ED;}
	.st2{fill:#C2F9F6;}
	.st3{fill:#D4FCF9;}
	.st4{fill:#131F21;}
	.st5{fill:#609614;}
	.st6{fill:#71A929;}
	.st7{fill:#A86731;}
	.st8{fill:#57AF1E;}
	.st9{fill:#8DC667;}
	.st10{fill:#C6854A;}
	.st11{fill:#4F4E4D;}
	.st12{fill:#5CDCE0;}
	.st13{fill:#A7A098;}
	.st14{fill:#848280;}
	.st15{fill:none;}
	.st16{fill:#D83A32;}
	.st17{fill:#26393F;}
	.st18{fill:#FFA20D;}
	.st19{fill:#FFC50B;}
	.st20{fill:#F7C29A;}
	.st21{fill:#EAB386;}
	.st22{fill:#F4FDFC;}
</style>
<g id="BACKGROUND">
	<rect class="st0" width="1400" height="1000"/>
</g>
<g id="OBJECT">
	<rect class="st1" width="1400" height="1000"/>
	<g>
		<path class="st2" d="M700,237c-283.8,0-514,230.1-514,514c0,18.6,1,37,2.9,55.1c7.4,69.8,28.8,135.4,61.3,193.9h899.4
			c32.5-58.6,53.9-124.2,61.3-193.9c1.9-18.1,2.9-36.5,2.9-55.1C1213.9,467.1,983.8,237,700,237z"/>
		<path class="st3" d="M1023.4,751c0,18.8-1.6,37.2-4.7,55.1c-13.3,77.6-54.3,145.7-112.4,193.9H493.7
			c-58.1-48.2-99.1-116.3-112.4-193.9c-3.1-17.9-4.7-36.3-4.7-55.1c0-178.6,144.8-323.4,323.4-323.4S1023.4,572.4,1023.4,751z"/>
	</g>
	<g>
		<rect x="1019.8" y="796.3" class="st4" width="45.6" height="9.9"/>
		<rect x="1019.8" y="802.1" class="st4" width="45.6" height="4"/>
		<g>
			<g>
				<g>
					<path class="st5" d="M359.7,540.9c-6.4-6.6-8.7-16.3-6.7-25.5c0.9-3.9,1.3-8,1.3-12.2c0-13.3-4.6-25.7-12.4-36.1
						c-5.6-7.4-7.5-17.1-4.7-26.1c1.8-5.8,2.7-11.9,2.7-18.2c0-34-27-61.5-60.2-61.5s-60.2,27.5-60.2,61.5c0,6.3,0.9,12.5,2.7,18.2
						c2.7,9,0.8,18.8-4.7,26.1c-7.8,10.3-12.4,22.7-12.4,36.1c0,4.2,0.4,8.2,1.3,12.2c2,9.2-0.3,18.9-6.7,25.5
						c-13.3,13.7-21.2,30.9-21.2,49.6c0,44.7,45.3,80.9,101.3,80.9s101.3-36.2,101.3-80.9C380.9,571.8,373,554.6,359.7,540.9z"/>
				</g>
				<g>
					<path class="st6" d="M355.6,590.4c0-18.7-7.9-35.9-21.2-49.6c-6.4-6.6-8.7-16.3-6.7-25.5c0.9-3.9,1.3-8,1.3-12.2
						c0-13.3-4.6-25.7-12.4-36.1c-5.6-7.4-7.5-17.1-4.7-26.1c1.8-5.8,2.7-11.9,2.7-18.2c0-29.5-20.4-54.2-47.5-60.1
						c-27.2,5.9-47.5,30.6-47.5,60.1c0,6.3,0.9,12.5,2.7,18.2c2.7,9,0.8,18.8-4.7,26.1c-7.8,10.3-12.4,22.7-12.4,36.1
						c0,4.2,0.4,8.2,1.3,12.2c2,9.2-0.3,18.9-6.7,25.5c-13.3,13.7-21.2,30.9-21.2,49.6c0,41.2,38.7,75.2,88.6,80.2
						C316.9,665.7,355.6,631.7,355.6,590.4z"/>
				</g>
				<g>
					<g>
						<path class="st7" d="M284.2,806.2V475c0-2.5-2-4.5-4.5-4.5c-2.5,0-4.5,2-4.5,4.5v331.2H284.2z"/>
					</g>
					<g>
						<path class="st7" d="M279.6,554c-1.3,0-2.7-0.6-3.6-1.7l-32.6-41.4c-1.5-2-1.2-4.8,0.8-6.4c2-1.5,4.8-1.2,6.4,0.8l32.6,41.4
							c1.5,2,1.2,4.8-0.8,6.4C281.6,553.7,280.6,554,279.6,554z"/>
					</g>
					<g>
						<path class="st7" d="M279.6,615.5c-0.9,0-1.8-0.3-2.6-0.8c-2.1-1.4-2.6-4.2-1.2-6.3l27.7-40.2c1.4-2.1,4.2-2.6,6.3-1.2
							c2.1,1.4,2.6,4.2,1.2,6.3l-27.7,40.2C282.5,614.8,281.1,615.5,279.6,615.5z"/>
					</g>
				</g>
			</g>
			<g>
				<g>
					<path class="st5" d="M1200.4,540.9c-6.4-6.6-8.7-16.3-6.7-25.5c0.9-3.9,1.3-8,1.3-12.2c0-13.3-4.6-25.7-12.4-36.1
						c-5.6-7.4-7.5-17.1-4.7-26.1c1.8-5.8,2.7-11.9,2.7-18.2c0-34-27-61.5-60.2-61.5c-33.3,0-60.2,27.5-60.2,61.5
						c0,6.3,0.9,12.5,2.7,18.2c2.7,9,0.8,18.8-4.7,26.1c-7.8,10.3-12.4,22.7-12.4,36.1c0,4.2,0.4,8.2,1.3,12.2
						c2,9.2-0.3,18.9-6.7,25.5c-13.3,13.7-21.2,30.9-21.2,49.6c0,44.7,45.3,80.9,101.3,80.9c55.9,0,101.3-36.2,101.3-80.9
						C1221.6,571.8,1213.7,554.6,1200.4,540.9z"/>
				</g>
				<g>
					<path class="st6" d="M1196.3,590.4c0-18.7-7.9-35.9-21.2-49.6c-6.4-6.6-8.7-16.3-6.7-25.5c0.9-3.9,1.3-8,1.3-12.2
						c0-13.3-4.6-25.7-12.4-36.1c-5.6-7.4-7.5-17.1-4.7-26.1c1.8-5.8,2.7-11.9,2.7-18.2c0-29.5-20.4-54.2-47.5-60.1
						c-27.2,5.9-47.5,30.6-47.5,60.1c0,6.3,0.9,12.5,2.7,18.2c2.7,9,0.8,18.8-4.7,26.1c-7.8,10.3-12.4,22.7-12.4,36.1
						c0,4.2,0.4,8.2,1.3,12.2c2,9.2-0.3,18.9-6.7,25.5c-13.3,13.7-21.2,30.9-21.2,49.6c0,41.2,38.7,75.2,88.6,80.2
						C1157.6,665.7,1196.3,631.7,1196.3,590.4z"/>
				</g>
				<g>
					<g>
						<path class="st7" d="M1124.9,806.2V475c0-2.5-2-4.5-4.5-4.5c-2.5,0-4.5,2-4.5,4.5v331.2H1124.9z"/>
					</g>
					<g>
						<path class="st7" d="M1120.4,554c-1.3,0-2.7-0.6-3.6-1.7l-32.6-41.4c-1.5-2-1.2-4.8,0.8-6.4c2-1.5,4.8-1.2,6.4,0.8l32.6,41.4
							c1.5,2,1.2,4.8-0.8,6.4C1122.3,553.7,1121.3,554,1120.4,554z"/>
					</g>
					<g>
						<path class="st7" d="M1120.4,615.5c-0.9,0-1.8-0.3-2.6-0.8c-2.1-1.4-2.6-4.2-1.2-6.3l27.7-40.2c1.4-2.1,4.2-2.6,6.3-1.2
							c2.1,1.4,2.6,4.2,1.2,6.3l-27.7,40.2C1123.2,614.8,1121.8,615.5,1120.4,615.5z"/>
					</g>
				</g>
			</g>
			<g>
				<g>
					<path class="st5" d="M975.9,540.9c-6.4-6.6-8.7-16.3-6.7-25.5c0.9-3.9,1.3-8,1.3-12.2c0-13.3-4.6-25.7-12.4-36.1
						c-5.6-7.4-7.5-17.1-4.7-26.1c1.8-5.8,2.7-11.9,2.7-18.2c0-34-27-61.5-60.2-61.5s-60.2,27.5-60.2,61.5c0,6.3,0.9,12.5,2.7,18.2
						c2.7,9,0.8,18.8-4.7,26.1c-7.8,10.3-12.4,22.7-12.4,36.1c0,4.2,0.4,8.2,1.3,12.2c2,9.2-0.3,18.9-6.7,25.5
						c-13.3,13.7-21.2,30.9-21.2,49.6c0,44.7,45.3,80.9,101.3,80.9c55.9,0,101.3-36.2,101.3-80.9
						C997.1,571.8,989.2,554.6,975.9,540.9z"/>
				</g>
				<g>
					<path class="st6" d="M971.8,590.4c0-18.7-7.9-35.9-21.2-49.6c-6.4-6.6-8.7-16.3-6.7-25.5c0.9-3.9,1.3-8,1.3-12.2
						c0-13.3-4.6-25.7-12.4-36.1c-5.6-7.4-7.5-17.1-4.7-26.1c1.8-5.8,2.7-11.9,2.7-18.2c0-29.5-20.4-54.2-47.5-60.1
						c-27.2,5.9-47.5,30.6-47.5,60.1c0,6.3,0.9,12.5,2.7,18.2c2.7,9,0.8,18.8-4.7,26.1c-7.8,10.3-12.4,22.7-12.4,36.1
						c0,4.2,0.4,8.2,1.3,12.2c2,9.2-0.3,18.9-6.7,25.5c-13.3,13.7-21.2,30.9-21.2,49.6c0,41.2,38.7,75.2,88.6,80.2
						C933.1,665.7,971.8,631.7,971.8,590.4z"/>
				</g>
				<g>
					<g>
						<path class="st7" d="M895.4,806.2V475c0-2.5-2-4.5-4.5-4.5c-2.5,0-4.5,2-4.5,4.5v331.2H895.4z"/>
					</g>
					<g>
						<path class="st7" d="M890.9,554c-1,0-2-0.3-2.8-1c-2-1.5-2.3-4.4-0.8-6.4l32.6-41.4c1.5-2,4.4-2.3,6.4-0.8
							c2,1.5,2.3,4.4,0.8,6.4l-32.6,41.4C893.5,553.4,892.2,554,890.9,554z"/>
					</g>
					<g>
						<path class="st7" d="M890.9,615.5c-1.4,0-2.9-0.7-3.7-2l-27.7-40.2c-1.4-2.1-0.9-4.9,1.2-6.3c2.1-1.4,4.9-0.9,6.3,1.2
							l27.7,40.2c1.4,2.1,0.9,4.9-1.2,6.3C892.7,615.3,891.8,615.5,890.9,615.5z"/>
					</g>
				</g>
			</g>
		</g>
		<g>
			<path class="st8" d="M36.8,806.2h371.4c0.7-3.7,1-7.5,1-11.3c0-33.2-26-60.3-58.7-62.1c-1.9-28.1-25.2-50.3-53.7-50.3
				c-6.9,0-13.5,1.3-19.5,3.7c-12.7-21.1-35.8-35.3-62.2-35.3c-28.4,0-52.9,16.3-64.8,40.1c-6.7-2.5-14-3.8-21.6-3.8
				c-34.4,0-62.2,27.9-62.2,62.2c0,6.8,1.1,13.3,3.1,19.4C51.6,772.3,38,787.5,36.8,806.2z"/>
			<path class="st8" d="M990.9,806.2h371.4c0.7-3.7,1-7.5,1-11.3c0-33.2-26-60.3-58.7-62.1c-1.9-28.1-25.2-50.3-53.7-50.3
				c-6.9,0-13.5,1.3-19.5,3.7c-12.7-21.1-35.8-35.3-62.2-35.3c-28.4,0-52.9,16.3-64.8,40.1c-6.7-2.5-14-3.8-21.6-3.8
				c-34.4,0-62.2,27.9-62.2,62.2c0,6.8,1.1,13.3,3.1,19.4C1005.7,772.3,992,787.5,990.9,806.2z"/>
			<path class="st9" d="M592.4,806.2c4-6.5,6.3-14.1,6.3-22.2c0-23.5-19-42.5-42.5-42.5c-3.2,0-6.3,0.4-9.3,1
				c-2.3-23.3-21.9-41.5-45.8-41.5c-0.7,0-1.4,0.1-2.2,0.1c-4.6-29.3-30-51.7-60.6-51.7c-28.1,0-51.7,18.9-59,44.6
				c-0.3,0-0.6,0-0.9,0c-22.9,0-41.8,16.7-45.3,38.5c-23.2,8.5-39.7,30.8-39.7,56.9c0,5.8,0.8,11.4,2.3,16.7H592.4z"/>
			<path class="st9" d="M1077.4,806.2c4-6.5,6.3-14.1,6.3-22.2c0-23.5-19-42.5-42.5-42.5c-3.2,0-6.3,0.4-9.3,1
				c-2.3-23.3-21.9-41.5-45.8-41.5c-0.7,0-1.4,0.1-2.2,0.1c-4.6-29.3-30-51.7-60.6-51.7c-28.1,0-51.7,18.9-59,44.6
				c-0.3,0-0.6,0-0.9,0c-22.9,0-41.8,16.7-45.3,38.5c-23.2,8.5-39.7,30.8-39.7,56.9c0,5.8,0.8,11.4,2.3,16.7H1077.4z"/>
		</g>
		<g>
			<g>
				<g>
					<path class="st7" d="M233.8,806.2v-158c0-4-3.2-7.2-7.2-7.2c-4,0-7.2,3.2-7.2,7.2v158H233.8z"/>
					<path class="st7" d="M399.9,806.2v-158c0-4-3.2-7.2-7.2-7.2s-7.2,3.2-7.2,7.2v158H399.9z"/>
				</g>
				<g>
					<rect x="193.6" y="762.4" class="st7" width="14.4" height="43.8"/>
					<rect x="412.4" y="762.4" class="st7" width="14.4" height="43.8"/>
				</g>
				<g>
					<rect x="188.1" y="709" class="st10" width="244.2" height="22.6"/>
					<rect x="188.1" y="682.4" class="st10" width="244.2" height="22.6"/>
					<rect x="188.1" y="656.5" class="st10" width="244.2" height="22.6"/>
				</g>
				<path class="st10" d="M181.6,754.2l11.2-11H428l11.2,11v7.5H181.6C181.6,761.7,180.5,754.9,181.6,754.2z"/>
				<rect x="181.4" y="754.2" class="st7" width="257.6" height="13.4"/>
				<path class="st11" d="M229.2,666.4c0,1.9-1.5,3.4-3.4,3.4s-3.4-1.5-3.4-3.4c0-1.9,1.5-3.4,3.4-3.4S229.2,664.5,229.2,666.4z"/>
				<path class="st11" d="M395.3,666.4c0,1.9-1.5,3.4-3.4,3.4c-1.9,0-3.4-1.5-3.4-3.4c0-1.9,1.5-3.4,3.4-3.4
					C393.8,663,395.3,664.5,395.3,666.4z"/>
				<path class="st11" d="M229.2,693.9c0,1.9-1.5,3.4-3.4,3.4s-3.4-1.5-3.4-3.4c0-1.9,1.5-3.4,3.4-3.4S229.2,692,229.2,693.9z"/>
				<path class="st11" d="M395.3,693.9c0,1.9-1.5,3.4-3.4,3.4c-1.9,0-3.4-1.5-3.4-3.4c0-1.9,1.5-3.4,3.4-3.4
					C393.8,690.4,395.3,692,395.3,693.9z"/>
				<path class="st11" d="M229.2,722.2c0,1.9-1.5,3.4-3.4,3.4s-3.4-1.5-3.4-3.4c0-1.9,1.5-3.4,3.4-3.4S229.2,720.3,229.2,722.2z"/>
				<path class="st11" d="M395.3,722.2c0,1.9-1.5,3.4-3.4,3.4c-1.9,0-3.4-1.5-3.4-3.4c0-1.9,1.5-3.4,3.4-3.4
					C393.8,718.8,395.3,720.3,395.3,722.2z"/>
			</g>
			<g>
				<g>
					<path class="st7" d="M1013.4,806.2v-158c0-4-3.2-7.2-7.2-7.2s-7.2,3.2-7.2,7.2v158H1013.4z"/>
					<path class="st7" d="M1179.6,806.2v-158c0-4-3.2-7.2-7.2-7.2s-7.2,3.2-7.2,7.2v158H1179.6z"/>
				</g>
				<g>
					<rect x="973.2" y="762.4" class="st7" width="14.4" height="43.8"/>
					<rect x="1192.1" y="762.4" class="st7" width="14.4" height="43.8"/>
				</g>
				<g>
					<rect x="967.7" y="709" class="st10" width="244.2" height="22.6"/>
					<rect x="967.7" y="682.4" class="st10" width="244.2" height="22.6"/>
					<rect x="967.7" y="656.5" class="st10" width="244.2" height="22.6"/>
				</g>
				<path class="st10" d="M961.3,754.2l11.2-11h235.2l11.2,11v7.5H961.3C961.3,761.7,960.1,754.9,961.3,754.2z"/>
				<rect x="961" y="754.2" class="st7" width="257.6" height="13.4"/>
				<path class="st11" d="M1008.8,666.4c0,1.9-1.5,3.4-3.4,3.4c-1.9,0-3.4-1.5-3.4-3.4c0-1.9,1.5-3.4,3.4-3.4
					C1007.3,663,1008.8,664.5,1008.8,666.4z"/>
				<path class="st11" d="M1175,666.4c0,1.9-1.5,3.4-3.4,3.4c-1.9,0-3.4-1.5-3.4-3.4c0-1.9,1.5-3.4,3.4-3.4
					C1173.4,663,1175,664.5,1175,666.4z"/>
				<path class="st11" d="M1008.8,693.9c0,1.9-1.5,3.4-3.4,3.4c-1.9,0-3.4-1.5-3.4-3.4c0-1.9,1.5-3.4,3.4-3.4
					C1007.3,690.4,1008.8,692,1008.8,693.9z"/>
				<path class="st11" d="M1175,693.9c0,1.9-1.5,3.4-3.4,3.4c-1.9,0-3.4-1.5-3.4-3.4c0-1.9,1.5-3.4,3.4-3.4
					C1173.4,690.4,1175,692,1175,693.9z"/>
				<path class="st11" d="M1008.8,722.2c0,1.9-1.5,3.4-3.4,3.4c-1.9,0-3.4-1.5-3.4-3.4c0-1.9,1.5-3.4,3.4-3.4
					C1007.3,718.8,1008.8,720.3,1008.8,722.2z"/>
				<path class="st11" d="M1175,722.2c0,1.9-1.5,3.4-3.4,3.4c-1.9,0-3.4-1.5-3.4-3.4c0-1.9,1.5-3.4,3.4-3.4
					C1173.4,718.8,1175,720.3,1175,722.2z"/>
			</g>
		</g>
		<g>
			<g>
				<g>
					<path class="st12" d="M599.4,686.9c-2.6,0-4.7-2.1-4.7-4.7V559.5c0-16.6,13.5-30,30.1-30c16.6,0,30.1,13.5,30.1,30v27.3
						c0,2.6-2.1,4.7-4.7,4.7c-2.6,0-4.7-2.1-4.7-4.7v-27.3c0-11.4-9.3-20.7-20.7-20.7c-11.4,0-20.7,9.3-20.7,20.7v122.8
						C604.1,684.8,602,686.9,599.4,686.9z"/>
				</g>
				<g>
					<path class="st12" d="M800.6,686.9c-2.6,0-4.7-2.1-4.7-4.7V559.5c0-11.4-9.3-20.7-20.7-20.7c-11.4,0-20.7,9.3-20.7,20.7v27.3
						c0,2.6-2.1,4.7-4.7,4.7c-2.6,0-4.7-2.1-4.7-4.7v-27.3c0-16.6,13.5-30,30.1-30c16.6,0,30.1,13.5,30.1,30v122.8
						C805.2,684.8,803.1,686.9,800.6,686.9z"/>
				</g>
			</g>
			<g>
				<g>
					<path class="st12" d="M632.7,597.9c-2.6,0-4.7-2.1-4.7-4.7V457.8c0-21.1,17.2-38.3,38.3-38.3c21.1,0,38.3,17.2,38.3,38.3v70
						c0,2.6-2.1,4.7-4.7,4.7c-2.6,0-4.7-2.1-4.7-4.7v-70c0-16-13-29-29-29c-16,0-29,13-29,29v135.4
						C637.4,595.8,635.3,597.9,632.7,597.9z"/>
				</g>
				<g>
					<path class="st12" d="M767.3,597.9c-2.6,0-4.7-2.1-4.7-4.7V457.8c0-16-13-29-29-29s-29,13-29,29v70c0,2.6-2.1,4.7-4.7,4.7
						c-2.6,0-4.7-2.1-4.7-4.7v-70c0-21.1,17.2-38.3,38.3-38.3c21.1,0,38.3,17.2,38.3,38.3v135.4
						C771.9,595.8,769.8,597.9,767.3,597.9z"/>
				</g>
			</g>
			<g>
				<rect x="667.8" y="750" class="st13" width="64.4" height="19.7"/>
				<polygon class="st13" points="667.8,768.4 648.1,790.6 648.1,799.8 751.7,799.8 751.9,790.6 732.2,768.4 				"/>
				<path class="st13" d="M751.7,806.2H648.3c-4.5,0-8.2-3.7-8.2-8.2v-1.2c0-4.5,3.7-8.2,8.2-8.2h103.3c4.5,0,8.2,3.7,8.2,8.2v1.2
					C759.9,802.5,756.2,806.2,751.7,806.2z"/>
				<path class="st14" d="M751.7,788.5H648.3c-4.5,0-8.2,3.7-8.2,8.2v1.2c0,0.9,0.1,1.8,0.4,2.6c1.1-3.3,4.2-5.7,7.8-5.7h103.3
					c3.6,0,6.7,2.4,7.8,5.7c0.3-0.8,0.4-1.7,0.4-2.6v-1.2C759.9,792.2,756.2,788.5,751.7,788.5z"/>
				<path class="st14" d="M751.7,788.5H734c4.5,0,8.2,3.7,8.2,8.2v1.2c0,4.5-3.7,8.2-8.2,8.2h17.7c4.5,0,8.2-3.7,8.2-8.2v-1.2
					C759.9,792.2,756.2,788.5,751.7,788.5z"/>
				<g>
					<path class="st14" d="M700,761c59,0,106.9-38.9,106.9-86.8H593.1C593.1,722.2,641,761,700,761z"/>
					<path class="st13" d="M775.2,674.2H593.1c0,43.6,39.5,79.6,91,85.9C735.7,753.9,775.2,717.8,775.2,674.2z"/>
					<path class="st14" d="M593.2,676.7c0.2,6.8,1.4,13.4,3.5,19.7h206.7c2-6.3,3.2-12.9,3.5-19.7H593.2z"/>
				</g>
				<path class="st13" d="M811.8,688.4H588.2c-5,0-9-4-9-9v-3c0-5,4-9,9-9h223.6c5,0,9,4,9,9v3C820.8,684.4,816.7,688.4,811.8,688.4
					z"/>
				<line class="st15" x1="735.1" y1="667" x2="722.3" y2="667"/>
				<polygon class="st13" points="675.9,638.5 661.1,675.9 738.9,675.9 724.3,638.5 				"/>
				<polygon class="st14" points="722.3,667 710.9,638 723.8,638 735.1,667 				"/>
				<g>
					<path class="st14" d="M700,649.2c44.3,0,80.3-29.2,80.3-65.2H619.7C619.7,620,655.7,649.2,700,649.2z"/>
					<path class="st13" d="M756.5,584H619.7c0,32.7,29.7,59.8,68.4,64.5C726.8,643.8,756.5,616.7,756.5,584z"/>
					<path class="st14" d="M619.8,585.9c0.2,5.1,1.1,10.1,2.6,14.8h155.2c1.5-4.7,2.4-9.7,2.6-14.8H619.8z"/>
				</g>
				<path class="st13" d="M784,594.6H616c-3.7,0-6.7-3-6.7-6.7v-2.2c0-3.7,3-6.7,6.7-6.7H784c3.7,0,6.7,3,6.7,6.7v2.2
					C790.7,591.6,787.7,594.6,784,594.6z"/>
				<line class="st15" x1="727.7" y1="578.9" x2="717.3" y2="578.9"/>
				<polygon class="st13" points="682.6,548.8 671.9,580.3 728.1,580.3 717.5,548.8 				"/>
				<polygon class="st14" points="717.3,578.9 707.2,548.8 717.5,548.8 727.7,578.9 				"/>
				<g>
					<path class="st14" d="M700,559.7c29,0,52.5-19.1,52.5-42.7H647.5C647.5,540.6,671,559.7,700,559.7z"/>
					<path class="st13" d="M737,517h-89.5c0,21.4,19.4,39.1,44.7,42.2C717.5,556.1,737,538.4,737,517z"/>
					<path class="st14" d="M647.5,518.2c0.1,3.3,0.7,6.6,1.7,9.7h101.6c1-3.1,1.6-6.3,1.7-9.7H647.5z"/>
				</g>
				<path class="st13" d="M754.9,524H645.1c-2.4,0-4.4-2-4.4-4.4v-1.5c0-2.4,2-4.4,4.4-4.4h109.9c2.4,0,4.4,2,4.4,4.4v1.5
					C759.4,522,757.4,524,754.9,524z"/>
			</g>
		</g>
		<g>
			<g>
				<g>
					<g>
						<path class="st6" d="M494,806.2V762c0-1.2-0.9-2.1-2.1-2.1c-1.2,0-2.1,0.9-2.1,2.1v44.2H494z"/>
					</g>
					<g>
						<g>
							<path class="st16" d="M478.1,764.8c4,7,13.9,8.9,13.9,8.9s3.3-9.5-0.8-16.5c-4-7-13.9-8.9-13.9-8.9S474,757.8,478.1,764.8z"
								/>
						</g>
						<g>
							<path class="st16" d="M505.8,764.8c-4,7-13.9,8.9-13.9,8.9s-3.3-9.5,0.8-16.5c4-7,13.9-8.9,13.9-8.9S509.8,757.8,505.8,764.8
								z"/>
						</g>
						<g>
							<path class="st16" d="M499.5,759c0,8.1-7.6,14.6-7.6,14.6s-7.6-6.6-7.6-14.6c0-8.1,7.6-14.6,7.6-14.6S499.5,750.9,499.5,759z
								"/>
						</g>
					</g>
					<g>
						<g>
							<path class="st6" d="M481.9,785.2c8.1,8.1,10.2,19.2,10.2,19.2s-11-2.1-19.2-10.2c-8.1-8.1-10.2-19.2-10.2-19.2
								S473.8,777,481.9,785.2z"/>
						</g>
						<g>
							<path class="st6" d="M501.9,785.2c-8.1,8.1-10.2,19.2-10.2,19.2s11-2.1,19.2-10.2c8.1-8.1,10.2-19.2,10.2-19.2
								S510.1,777,501.9,785.2z"/>
						</g>
					</g>
				</g>
				<g>
					<g>
						<path class="st6" d="M579.4,806.2V762c0-1.2-0.9-2.1-2.1-2.1c-1.2,0-2.1,0.9-2.1,2.1v44.2H579.4z"/>
					</g>
					<g>
						<g>
							<path class="st16" d="M563.5,764.8c4,7,13.9,8.9,13.9,8.9s3.3-9.5-0.8-16.5c-4-7-13.9-8.9-13.9-8.9S559.4,757.8,563.5,764.8z
								"/>
						</g>
						<g>
							<path class="st16" d="M591.2,764.8c-4,7-13.9,8.9-13.9,8.9s-3.3-9.5,0.8-16.5c4-7,13.9-8.9,13.9-8.9S595.2,757.8,591.2,764.8
								z"/>
						</g>
						<g>
							<path class="st16" d="M584.9,759c0,8.1-7.6,14.6-7.6,14.6s-7.6-6.6-7.6-14.6c0-8.1,7.6-14.6,7.6-14.6S584.9,750.9,584.9,759z
								"/>
						</g>
					</g>
					<g>
						<g>
							<path class="st6" d="M567.3,785.2c8.1,8.1,10.2,19.2,10.2,19.2s-11-2.1-19.2-10.2c-8.1-8.1-10.2-19.2-10.2-19.2
								S559.2,777,567.3,785.2z"/>
						</g>
						<g>
							<path class="st6" d="M587.3,785.2c-8.1,8.1-10.2,19.2-10.2,19.2s11-2.1,19.2-10.2c8.1-8.1,10.2-19.2,10.2-19.2
								S595.5,777,587.3,785.2z"/>
						</g>
					</g>
				</g>
			</g>
			<g>
				<g>
					<g>
						<path class="st6" d="M824.8,806.2V762c0-1.2-0.9-2.1-2.1-2.1c-1.2,0-2.1,0.9-2.1,2.1v44.2H824.8z"/>
					</g>
					<g>
						<g>
							<path class="st16" d="M808.8,764.8c4,7,13.9,8.9,13.9,8.9s3.3-9.5-0.8-16.5c-4-7-13.9-8.9-13.9-8.9S804.8,757.8,808.8,764.8z
								"/>
						</g>
						<g>
							<path class="st16" d="M836.5,764.8c-4,7-13.9,8.9-13.9,8.9s-3.3-9.5,0.8-16.5c4-7,13.9-8.9,13.9-8.9S840.6,757.8,836.5,764.8
								z"/>
						</g>
						<g>
							<path class="st16" d="M830.2,759c0,8.1-7.6,14.6-7.6,14.6s-7.6-6.6-7.6-14.6c0-8.1,7.6-14.6,7.6-14.6S830.2,750.9,830.2,759z
								"/>
						</g>
					</g>
					<g>
						<g>
							<path class="st6" d="M812.7,785.2c8.1,8.1,10.2,19.2,10.2,19.2s-11-2.1-19.2-10.2c-8.1-8.1-10.2-19.2-10.2-19.2
								S804.5,777,812.7,785.2z"/>
						</g>
						<g>
							<path class="st6" d="M832.7,785.2c-8.1,8.1-10.2,19.2-10.2,19.2s11-2.1,19.2-10.2c8.1-8.1,10.2-19.2,10.2-19.2
								S840.8,777,832.7,785.2z"/>
						</g>
					</g>
				</g>
				<g>
					<g>
						<path class="st6" d="M910.1,806.2V762c0-1.2-0.9-2.1-2.1-2.1s-2.1,0.9-2.1,2.1v44.2H910.1z"/>
					</g>
					<g>
						<g>
							<path class="st16" d="M894.2,764.8c4,7,13.9,8.9,13.9,8.9s3.3-9.5-0.8-16.5c-4-7-13.9-8.9-13.9-8.9S890.2,757.8,894.2,764.8z
								"/>
						</g>
						<g>
							<path class="st16" d="M921.9,764.8c-4,7-13.9,8.9-13.9,8.9s-3.3-9.5,0.8-16.5c4-7,13.9-8.9,13.9-8.9S926,757.8,921.9,764.8z"
								/>
						</g>
						<g>
							<path class="st16" d="M915.6,759c0,8.1-7.6,14.6-7.6,14.6s-7.6-6.6-7.6-14.6c0-8.1,7.6-14.6,7.6-14.6S915.6,750.9,915.6,759z
								"/>
						</g>
					</g>
					<g>
						<g>
							<path class="st6" d="M898.1,785.2c8.1,8.1,10.2,19.2,10.2,19.2s-11-2.1-19.2-10.2c-8.1-8.1-10.2-19.2-10.2-19.2
								S889.9,777,898.1,785.2z"/>
						</g>
						<g>
							<path class="st6" d="M918.1,785.2c-8.1,8.1-10.2,19.2-10.2,19.2s11-2.1,19.2-10.2c8.1-8.1,10.2-19.2,10.2-19.2
								S926.2,777,918.1,785.2z"/>
						</g>
					</g>
				</g>
			</g>
		</g>
		<g>
			<g>
				<g>
					<rect x="1293.8" y="376.6" class="st17" width="51" height="69.4"/>
					<g>
						
							<rect x="1287.7" y="390.3" transform="matrix(-1.836970e-16 1 -1 -1.836970e-16 1730.5338 -907.9749)" class="st18" width="63.1" height="42"/>
						<rect x="1298.3" y="379.7" class="st19" width="28.6" height="63.1"/>
					</g>
				</g>
				<g>
					<rect x="1311.9" y="444.7" class="st4" width="14.7" height="307.2"/>
					<rect x="1311.9" y="444.7" class="st17" width="9.8" height="307.2"/>
					<rect x="1311.9" y="645.9" class="st4" width="14.7" height="106"/>
				</g>
				<g>
					<polygon class="st4" points="1335.4,650.1 1324,650.1 1314.5,650.1 1303.1,650.1 1293.6,798.7 1314.5,798.7 1324,798.7 
						1344.9,798.7 					"/>
					<polygon class="st17" points="1324,650.1 1315.6,650.1 1314.5,650.1 1306,650.1 1303.1,650.1 1293.6,798.7 1306,798.7 
						1314.5,798.7 1315.6,798.7 1324,798.7 1336.5,798.7 1326.9,650.1 					"/>
					<polygon class="st4" points="1294.5,783.5 1293.6,798.7 1314.5,798.7 1324,798.7 1344.9,798.7 1344,783.5 					"/>
				</g>
				<rect x="1283" y="789.1" class="st17" width="72.6" height="17.1"/>
				<g>
					<polygon class="st4" points="1290.2,370.8 1348.3,370.8 1319.3,347.4 					"/>
					<polygon class="st17" points="1290.2,370.8 1339.3,370.8 1314.7,351 					"/>
					<polygon class="st4" points="1295.2,366.7 1290.2,370.8 1348.3,370.8 1343.3,366.7 					"/>
				</g>
				<g>
					<rect x="1305.7" y="455.5" class="st4" width="27.2" height="6.9"/>
					<rect x="1305.7" y="455.5" class="st17" width="22.9" height="6.9"/>
					<rect x="1305.7" y="460.3" class="st4" width="27.2" height="2"/>
				</g>
				<g>
					<rect x="1296.2" y="448.8" class="st4" width="46" height="8.2"/>
					<rect x="1296.2" y="448.8" class="st17" width="41.7" height="8.2"/>
					<rect x="1296.2" y="455.1" class="st4" width="46" height="2"/>
				</g>
				<g>
					<rect x="1287" y="443.7" class="st4" width="64.5" height="8.2"/>
					<rect x="1287" y="443.7" class="st17" width="60.2" height="8.2"/>
					<rect x="1287" y="450.2" class="st4" width="64.5" height="1.7"/>
				</g>
				<g>
					<rect x="1287" y="369.1" class="st4" width="64.5" height="8.2"/>
					<rect x="1287" y="369.1" class="st17" width="60.1" height="8.2"/>
					<rect x="1287" y="375.3" class="st4" width="64.5" height="2"/>
				</g>
			</g>
			<g>
				<g>
					<rect x="55.2" y="376.6" class="st17" width="51" height="69.4"/>
					<g>
						
							<rect x="49.2" y="390.3" transform="matrix(-1.836970e-16 1 -1 -1.836970e-16 492.0251 330.5338)" class="st18" width="63.1" height="42"/>
						<rect x="59.7" y="379.7" class="st19" width="28.6" height="63.1"/>
					</g>
				</g>
				<g>
					<rect x="73.4" y="444.7" class="st4" width="14.7" height="307.2"/>
					<rect x="73.4" y="444.7" class="st17" width="9.8" height="307.2"/>
					<rect x="73.4" y="645.9" class="st4" width="14.7" height="106"/>
				</g>
				<g>
					<polygon class="st4" points="96.9,650.1 85.5,650.1 76,650.1 64.6,650.1 55.1,798.7 76,798.7 85.5,798.7 106.4,798.7 					"/>
					<polygon class="st17" points="85.5,650.1 77.1,650.1 76,650.1 67.5,650.1 64.6,650.1 55.1,798.7 67.5,798.7 76,798.7 
						77.1,798.7 85.5,798.7 98,798.7 88.4,650.1 					"/>
					<polygon class="st4" points="56,783.5 55.1,798.7 76,798.7 85.5,798.7 106.4,798.7 105.5,783.5 					"/>
				</g>
				<rect x="44.4" y="789.1" class="st17" width="72.6" height="17.1"/>
				<g>
					<polygon class="st4" points="51.7,370.8 109.8,370.8 80.7,347.4 					"/>
					<polygon class="st17" points="51.7,370.8 100.8,370.8 76.2,351 					"/>
					<polygon class="st4" points="56.7,366.7 51.7,370.8 109.8,370.8 104.8,366.7 					"/>
				</g>
				<g>
					<rect x="67.2" y="455.5" class="st4" width="27.2" height="6.9"/>
					<rect x="67.2" y="455.5" class="st17" width="22.9" height="6.9"/>
					<rect x="67.2" y="460.3" class="st4" width="27.2" height="2"/>
				</g>
				<g>
					<rect x="57.7" y="448.8" class="st4" width="46" height="8.2"/>
					<rect x="57.7" y="448.8" class="st17" width="41.7" height="8.2"/>
					<rect x="57.7" y="455.1" class="st4" width="46" height="2"/>
				</g>
				<g>
					<rect x="48.5" y="443.7" class="st4" width="64.5" height="8.2"/>
					<rect x="48.5" y="443.7" class="st17" width="60.2" height="8.2"/>
					<rect x="48.5" y="450.2" class="st4" width="64.5" height="1.7"/>
				</g>
				<g>
					<rect x="48.5" y="369.1" class="st4" width="64.5" height="8.2"/>
					<rect x="48.5" y="369.1" class="st17" width="60.1" height="8.2"/>
					<rect x="48.5" y="375.3" class="st4" width="64.5" height="2"/>
				</g>
			</g>
		</g>
	</g>
	<g>
		<rect y="806.1" class="st20" width="1400" height="193.9"/>
		<path class="st21" d="M64.8,806.1C85.3,841.7,361.8,870,700,870s614.7-28.2,635.2-63.9H64.8z"/>
	</g>
	<path class="st22" d="M388.3,259.4L388.3,259.4c0-6.3-5.2-11.5-11.5-11.5h-23.4c-9.5,0-17.1-7.8-17.1-17.3c0-0.1,0-0.1,0-0.2
		c0-22.8-18.5-41.4-41.4-41.4c-1.9,0-3.8,0.1-5.7,0.4c-7.6-17-24.6-28.9-44.5-28.9c-24.3,0-44.4,17.8-48,41c-4-1.2-8.3-1.9-12.7-1.9
		c-24.5,0-44.4,19.9-44.4,44.4c0,0,0,0,0,0c0,2.1-1.6,3.7-3.7,3.7h-27.4c-6.3,0-11.5,5.2-11.5,11.5v0H388.3z"/>
	<path class="st22" d="M732.4,360.4L732.4,360.4c0-5.7-4.6-10.3-10.3-10.3h-21c-8.5,0-15.3-6.9-15.2-15.4c0-0.1,0-0.1,0-0.2
		c0-20.4-16.5-37-37-37c-1.7,0-3.4,0.1-5.1,0.3c-6.8-15.2-22-25.8-39.7-25.8c-21.7,0-39.6,15.9-42.9,36.6c-3.6-1.1-7.4-1.7-11.4-1.7
		c-21.9,0-39.7,17.8-39.7,39.7c0,0,0,0,0,0c0,1.8-1.5,3.3-3.3,3.3h-24.5c-5.7,0-10.3,4.6-10.3,10.3v0H732.4z"/>
	<path class="st22" d="M1009.6,201.5L1009.6,201.5c0-6.9-5.7-12.6-12.6-12.6h-25.6c-10.4,0-18.7-8.5-18.6-18.9c0-0.1,0-0.1,0-0.2
		c0-24.9-20.2-45.2-45.2-45.2c-2.1,0-4.2,0.1-6.2,0.4c-8.3-18.6-26.9-31.6-48.5-31.6c-26.5,0-48.4,19.4-52.4,44.8
		c-4.4-1.3-9.1-2-13.9-2c-26.8,0-48.5,21.7-48.5,48.5c0,0,0,0,0,0c0,2.3-1.8,4.1-4,4.1h-29.9c-6.9,0-12.6,5.7-12.6,12.6v0H1009.6z"
		/>
	<path class="st22" d="M1354.1,328.6L1354.1,328.6c0-5.4-4.5-9.9-9.9-9.9H1324c-8.2,0-14.7-6.7-14.7-14.9c0-0.1,0-0.1,0-0.2
		c0-19.6-15.9-35.6-35.6-35.6c-1.7,0-3.3,0.1-4.9,0.3c-6.5-14.7-21.2-24.9-38.2-24.9c-20.9,0-38.2,15.3-41.3,35.3
		c-3.5-1-7.2-1.6-11-1.6c-21.1,0-38.2,17.1-38.2,38.2c0,0,0,0,0,0c0,1.8-1.4,3.2-3.2,3.2h-23.6c-5.4,0-9.9,4.5-9.9,9.9v0H1354.1z"/>
</g>
</svg>
